<svg xmlns="http://www.w3.org/2000/svg" viewBox="0 0 512 512">
  <defs>
    <linearGradient id="grad1" x1="0%" y1="0%" x2="100%" y2="100%">
      <stop offset="0%" style="stop-color:#45a29e;stop-opacity:1" />
      <stop offset="100%" style="stop-color:#66fcf1;stop-opacity:1" />
    </linearGradient>
    <filter id="glow" x="-20%" y="-20%" width="140%" height="140%">
      <feGaussianBlur stdDeviation="15" result="blur" />
      <feMerge>
        <feMergeNode in="blur" />
        <feMergeNode in="SourceGraphic" />
      </feMerge>
    </filter>
  </defs>
  <rect width="512" height="512" rx="120" fill="#0b0c10" />
  <g filter="url(#glow)">
    <path d="M400 128H112C85.5 128 64 149.5 64 176V336C64 362.5 85.5 384 112 384H160V448L240 384H400C426.5 384 448 362.5 448 336V176C448 149.5 426.5 128 400 128ZM256 312C242.7 312 232 301.3 232 288C232 274.7 242.7 264 256 264C269.3 264 280 274.7 280 288C280 301.3 269.3 312 256 312ZM256 240C242.7 240 232 229.3 232 216C232 202.7 242.7 192 256 192C269.3 192 280 202.7 280 216C280 229.3 269.3 240 256 240ZM168 288C154.7 288 144 277.3 144 264C144 250.7 154.7 240 168 240C181.3 240 192 250.7 192 264C192 277.3 181.3 288 168 288ZM344 288C330.7 288 320 277.3 320 264C320 250.7 330.7 240 344 240C357.3 240 368 250.7 368 264C368 277.3 357.3 288 344 288Z" fill="url(#grad1)"/>
  </g>
</svg>